<svg width="512" height="512" viewBox="0 0 512 512" fill="none" xmlns="http://www.w3.org/2000/svg">
<path d="M18.75 45.5303V144.97L106.344 188.5L145.938 108.344L18.75 45.5303ZM273.344 116.75L274.281 146.03C258.598 148.821 243.42 153.941 229.251 161.22C254.455 180.353 277.516 202.088 297.657 225.97C330.627 223.02 362.063 240.274 376.251 270.094C378.563 274.952 380.549 280.421 381.876 285.814L383.656 293.062L383.314 293.25C389.19 333.345 363.104 372.16 322.97 382.03C280.346 392.514 237.255 366.426 226.78 323.906C222.913 308.199 224.612 292.53 229.656 278.5C209.834 255.71 188.471 236.33 165.436 220.156C165.239 220.478 165.04 220.802 164.844 221.126C164.839 221.133 164.848 221.149 164.844 221.156L126.219 235.876L151.249 249.5C145.296 265.82 141.903 283.39 141.561 301.688L115.624 333.656L143.97 333C147.155 351.025 153.355 368.013 162 383.438L155.5 423.063L179.25 408.375C191.024 422.39 205.088 434.309 220.844 443.625L234.906 480.375L248 456.405C264.868 462.492 283.053 465.855 302 465.938L332.875 490.875L332 463.25C350.2 459.91 367.333 453.56 382.844 444.656L422.5 451.031L407.656 427.064C421.173 415.457 432.682 401.699 441.719 386.344L480 371.75L454.844 358.062C460.466 342.022 463.636 324.842 463.874 306.937L490.595 274L461.095 274.688C457.928 257.9 452.094 241.726 443.815 226.781L450.72 184.595L425.406 200.22C414.284 187.18 401.162 175.989 386.531 167.063L371.314 127.281L357.251 153.031C341.378 147.325 324.363 144.048 306.626 143.626L273.346 116.751L273.344 116.75ZM153.314 135.625L146.438 149.5C208.536 181.288 251.48 218.91 287 267.906C288.172 267.338 289.372 266.827 290.594 266.376C294.979 264.774 299.613 263.96 304.281 263.969C304.931 263.969 305.573 263.996 306.221 264.029C321.735 264.843 336.091 274.726 341.721 290.155C349.224 310.728 338.465 333.725 317.876 341.218C297.286 348.708 274.256 338.008 266.751 317.435C261.961 304.301 264.629 290.193 272.531 279.748C238.457 232.441 198.305 197.05 138.157 166.278L132.063 178.592C175.283 200.297 213.753 230.664 247.407 270.404L251.22 274.874L248.844 280.217C243.491 292.259 241.62 305.965 244.938 319.434C253.008 352.192 285.656 371.958 318.531 363.872C351.421 355.782 371.763 322.932 363.721 290.278C362.731 286.258 361.075 281.693 359.376 278.123C347.988 254.188 322.29 240.827 295.22 245.029L289.937 245.843L286.562 241.749C250.802 198.239 204.61 161.781 153.312 135.624L153.314 135.625ZM304.314 282.625C301.808 282.633 299.322 283.077 296.969 283.938C285.854 287.982 280.275 299.996 284.311 311.063C288.348 322.129 300.385 327.701 311.499 323.656C322.613 319.612 328.192 307.629 324.155 296.562C321.128 288.262 313.603 283.042 305.343 282.656C304.999 282.64 304.658 282.624 304.313 282.626L304.314 282.625Z" fill="#0CA24D"/>
</svg>
